<mxfile host="app.diagrams.net" agent="Mozilla/5.0 (Windows NT 10.0; Win64; x64) AppleWebKit/537.36 (KHTML, like Gecko) Chrome/130.0.0.0 Safari/537.36" version="24.7.17">
  <diagram name="Page-1" id="Kx9Kxh31qZkmCrrMCIET">
    <mxGraphModel dx="684" dy="737" grid="1" gridSize="10" guides="1" tooltips="1" connect="1" arrows="1" fold="1" page="1" pageScale="1" pageWidth="850" pageHeight="1100" math="0" shadow="0">
      <root>
        <mxCell id="0" />
        <mxCell id="1" parent="0" />
        <mxCell id="3oDmWCeqMh5HA-oaFcVl-2" value="&lt;h1 style=&quot;margin-top: 0px;&quot;&gt;main()&lt;/h1&gt;" style="text;html=1;whiteSpace=wrap;overflow=hidden;rounded=0;" vertex="1" parent="1">
          <mxGeometry x="60" y="30" width="180" height="40" as="geometry" />
        </mxCell>
        <mxCell id="3oDmWCeqMh5HA-oaFcVl-3" value="STOP" style="strokeWidth=2;html=1;shape=mxgraph.flowchart.terminator;whiteSpace=wrap;" vertex="1" parent="1">
          <mxGeometry x="50" y="310" width="100" height="40" as="geometry" />
        </mxCell>
        <mxCell id="3oDmWCeqMh5HA-oaFcVl-7" style="edgeStyle=orthogonalEdgeStyle;rounded=0;orthogonalLoop=1;jettySize=auto;html=1;exitX=0.5;exitY=1;exitDx=0;exitDy=0;exitPerimeter=0;entryX=0.5;entryY=0;entryDx=0;entryDy=0;" edge="1" parent="1" source="3oDmWCeqMh5HA-oaFcVl-4" target="3oDmWCeqMh5HA-oaFcVl-6">
          <mxGeometry relative="1" as="geometry" />
        </mxCell>
        <mxCell id="3oDmWCeqMh5HA-oaFcVl-4" value="START" style="strokeWidth=2;html=1;shape=mxgraph.flowchart.start_1;whiteSpace=wrap;" vertex="1" parent="1">
          <mxGeometry x="50" y="80" width="100" height="60" as="geometry" />
        </mxCell>
        <mxCell id="3oDmWCeqMh5HA-oaFcVl-9" style="edgeStyle=orthogonalEdgeStyle;rounded=0;orthogonalLoop=1;jettySize=auto;html=1;exitX=0.5;exitY=1;exitDx=0;exitDy=0;entryX=0.5;entryY=0;entryDx=0;entryDy=0;" edge="1" parent="1" source="3oDmWCeqMh5HA-oaFcVl-6" target="3oDmWCeqMh5HA-oaFcVl-8">
          <mxGeometry relative="1" as="geometry" />
        </mxCell>
        <mxCell id="3oDmWCeqMh5HA-oaFcVl-6" value="GET n&amp;nbsp;" style="shape=parallelogram;perimeter=parallelogramPerimeter;whiteSpace=wrap;html=1;fixedSize=1;" vertex="1" parent="1">
          <mxGeometry x="40" y="160" width="120" height="40" as="geometry" />
        </mxCell>
        <mxCell id="3oDmWCeqMh5HA-oaFcVl-8" value="CALL module, printMonth(n)" style="shape=process;whiteSpace=wrap;html=1;backgroundOutline=1;" vertex="1" parent="1">
          <mxGeometry x="40" y="230" width="120" height="60" as="geometry" />
        </mxCell>
        <mxCell id="3oDmWCeqMh5HA-oaFcVl-10" style="edgeStyle=orthogonalEdgeStyle;rounded=0;orthogonalLoop=1;jettySize=auto;html=1;exitX=0.5;exitY=1;exitDx=0;exitDy=0;entryX=0.5;entryY=0;entryDx=0;entryDy=0;entryPerimeter=0;" edge="1" parent="1" source="3oDmWCeqMh5HA-oaFcVl-8" target="3oDmWCeqMh5HA-oaFcVl-3">
          <mxGeometry relative="1" as="geometry" />
        </mxCell>
        <mxCell id="3oDmWCeqMh5HA-oaFcVl-11" value="&lt;h1 style=&quot;margin-top: 0px;&quot;&gt;printMonth(num)&lt;/h1&gt;" style="text;html=1;whiteSpace=wrap;overflow=hidden;rounded=0;" vertex="1" parent="1">
          <mxGeometry x="245" y="30" width="215" height="40" as="geometry" />
        </mxCell>
        <mxCell id="3oDmWCeqMh5HA-oaFcVl-25" style="edgeStyle=orthogonalEdgeStyle;rounded=0;orthogonalLoop=1;jettySize=auto;html=1;exitX=0.5;exitY=1;exitDx=0;exitDy=0;exitPerimeter=0;entryX=0.5;entryY=0;entryDx=0;entryDy=0;" edge="1" parent="1" source="3oDmWCeqMh5HA-oaFcVl-12" target="3oDmWCeqMh5HA-oaFcVl-13">
          <mxGeometry relative="1" as="geometry" />
        </mxCell>
        <mxCell id="3oDmWCeqMh5HA-oaFcVl-12" value="printMonth(num)" style="strokeWidth=2;html=1;shape=mxgraph.flowchart.start_1;whiteSpace=wrap;" vertex="1" parent="1">
          <mxGeometry x="302.5" y="80" width="100" height="50" as="geometry" />
        </mxCell>
        <mxCell id="3oDmWCeqMh5HA-oaFcVl-26" style="edgeStyle=orthogonalEdgeStyle;rounded=0;orthogonalLoop=1;jettySize=auto;html=1;exitX=0.5;exitY=1;exitDx=0;exitDy=0;entryX=0.5;entryY=0;entryDx=0;entryDy=0;" edge="1" parent="1" source="3oDmWCeqMh5HA-oaFcVl-13" target="3oDmWCeqMh5HA-oaFcVl-14">
          <mxGeometry relative="1" as="geometry" />
        </mxCell>
        <mxCell id="3oDmWCeqMh5HA-oaFcVl-81" style="edgeStyle=orthogonalEdgeStyle;rounded=0;orthogonalLoop=1;jettySize=auto;html=1;exitX=1;exitY=0.5;exitDx=0;exitDy=0;entryX=0;entryY=0.5;entryDx=0;entryDy=0;" edge="1" parent="1" source="3oDmWCeqMh5HA-oaFcVl-13" target="3oDmWCeqMh5HA-oaFcVl-51">
          <mxGeometry relative="1" as="geometry" />
        </mxCell>
        <mxCell id="3oDmWCeqMh5HA-oaFcVl-13" value="num == 1&lt;div&gt;?&lt;/div&gt;" style="rhombus;whiteSpace=wrap;html=1;" vertex="1" parent="1">
          <mxGeometry x="312.5" y="160" width="80" height="80" as="geometry" />
        </mxCell>
        <mxCell id="3oDmWCeqMh5HA-oaFcVl-27" style="edgeStyle=orthogonalEdgeStyle;rounded=0;orthogonalLoop=1;jettySize=auto;html=1;exitX=0.5;exitY=1;exitDx=0;exitDy=0;entryX=0.5;entryY=0;entryDx=0;entryDy=0;" edge="1" parent="1" source="3oDmWCeqMh5HA-oaFcVl-14" target="3oDmWCeqMh5HA-oaFcVl-15">
          <mxGeometry relative="1" as="geometry" />
        </mxCell>
        <mxCell id="3oDmWCeqMh5HA-oaFcVl-82" style="edgeStyle=orthogonalEdgeStyle;rounded=0;orthogonalLoop=1;jettySize=auto;html=1;exitX=1;exitY=0.5;exitDx=0;exitDy=0;entryX=0;entryY=0.5;entryDx=0;entryDy=0;" edge="1" parent="1" source="3oDmWCeqMh5HA-oaFcVl-14" target="3oDmWCeqMh5HA-oaFcVl-52">
          <mxGeometry relative="1" as="geometry" />
        </mxCell>
        <mxCell id="3oDmWCeqMh5HA-oaFcVl-14" value="num == 2&lt;div&gt;?&lt;/div&gt;" style="rhombus;whiteSpace=wrap;html=1;" vertex="1" parent="1">
          <mxGeometry x="312.5" y="260" width="80" height="80" as="geometry" />
        </mxCell>
        <mxCell id="3oDmWCeqMh5HA-oaFcVl-28" style="edgeStyle=orthogonalEdgeStyle;rounded=0;orthogonalLoop=1;jettySize=auto;html=1;exitX=0.5;exitY=1;exitDx=0;exitDy=0;entryX=0.5;entryY=0;entryDx=0;entryDy=0;" edge="1" parent="1" source="3oDmWCeqMh5HA-oaFcVl-15" target="3oDmWCeqMh5HA-oaFcVl-16">
          <mxGeometry relative="1" as="geometry" />
        </mxCell>
        <mxCell id="3oDmWCeqMh5HA-oaFcVl-83" style="edgeStyle=orthogonalEdgeStyle;rounded=0;orthogonalLoop=1;jettySize=auto;html=1;exitX=1;exitY=0.5;exitDx=0;exitDy=0;entryX=0;entryY=0.5;entryDx=0;entryDy=0;" edge="1" parent="1" source="3oDmWCeqMh5HA-oaFcVl-15" target="3oDmWCeqMh5HA-oaFcVl-53">
          <mxGeometry relative="1" as="geometry" />
        </mxCell>
        <mxCell id="3oDmWCeqMh5HA-oaFcVl-15" value="num == 3&lt;div&gt;?&lt;/div&gt;" style="rhombus;whiteSpace=wrap;html=1;" vertex="1" parent="1">
          <mxGeometry x="312.5" y="360" width="80" height="80" as="geometry" />
        </mxCell>
        <mxCell id="3oDmWCeqMh5HA-oaFcVl-29" style="edgeStyle=orthogonalEdgeStyle;rounded=0;orthogonalLoop=1;jettySize=auto;html=1;exitX=0.5;exitY=1;exitDx=0;exitDy=0;entryX=0.5;entryY=0;entryDx=0;entryDy=0;" edge="1" parent="1" source="3oDmWCeqMh5HA-oaFcVl-16" target="3oDmWCeqMh5HA-oaFcVl-17">
          <mxGeometry relative="1" as="geometry" />
        </mxCell>
        <mxCell id="3oDmWCeqMh5HA-oaFcVl-84" style="edgeStyle=orthogonalEdgeStyle;rounded=0;orthogonalLoop=1;jettySize=auto;html=1;exitX=1;exitY=0.5;exitDx=0;exitDy=0;entryX=0;entryY=0.5;entryDx=0;entryDy=0;" edge="1" parent="1" source="3oDmWCeqMh5HA-oaFcVl-16" target="3oDmWCeqMh5HA-oaFcVl-54">
          <mxGeometry relative="1" as="geometry" />
        </mxCell>
        <mxCell id="3oDmWCeqMh5HA-oaFcVl-16" value="num == 4&lt;div&gt;?&lt;/div&gt;" style="rhombus;whiteSpace=wrap;html=1;" vertex="1" parent="1">
          <mxGeometry x="312.5" y="460" width="80" height="80" as="geometry" />
        </mxCell>
        <mxCell id="3oDmWCeqMh5HA-oaFcVl-30" style="edgeStyle=orthogonalEdgeStyle;rounded=0;orthogonalLoop=1;jettySize=auto;html=1;exitX=0.5;exitY=1;exitDx=0;exitDy=0;entryX=0.5;entryY=0;entryDx=0;entryDy=0;" edge="1" parent="1" source="3oDmWCeqMh5HA-oaFcVl-17" target="3oDmWCeqMh5HA-oaFcVl-18">
          <mxGeometry relative="1" as="geometry" />
        </mxCell>
        <mxCell id="3oDmWCeqMh5HA-oaFcVl-89" style="edgeStyle=orthogonalEdgeStyle;rounded=0;orthogonalLoop=1;jettySize=auto;html=1;exitX=1;exitY=0.5;exitDx=0;exitDy=0;entryX=0;entryY=0.5;entryDx=0;entryDy=0;" edge="1" parent="1" source="3oDmWCeqMh5HA-oaFcVl-17" target="3oDmWCeqMh5HA-oaFcVl-55">
          <mxGeometry relative="1" as="geometry" />
        </mxCell>
        <mxCell id="3oDmWCeqMh5HA-oaFcVl-17" value="num == 5&lt;div&gt;?&lt;/div&gt;" style="rhombus;whiteSpace=wrap;html=1;" vertex="1" parent="1">
          <mxGeometry x="312.5" y="560" width="80" height="80" as="geometry" />
        </mxCell>
        <mxCell id="3oDmWCeqMh5HA-oaFcVl-61" style="edgeStyle=orthogonalEdgeStyle;rounded=0;orthogonalLoop=1;jettySize=auto;html=1;exitX=0.5;exitY=1;exitDx=0;exitDy=0;entryX=0.5;entryY=0;entryDx=0;entryDy=0;" edge="1" parent="1" source="3oDmWCeqMh5HA-oaFcVl-18" target="3oDmWCeqMh5HA-oaFcVl-60">
          <mxGeometry relative="1" as="geometry" />
        </mxCell>
        <mxCell id="3oDmWCeqMh5HA-oaFcVl-91" style="edgeStyle=orthogonalEdgeStyle;rounded=0;orthogonalLoop=1;jettySize=auto;html=1;exitX=1;exitY=0.5;exitDx=0;exitDy=0;entryX=0;entryY=0.5;entryDx=0;entryDy=0;" edge="1" parent="1" source="3oDmWCeqMh5HA-oaFcVl-18" target="3oDmWCeqMh5HA-oaFcVl-56">
          <mxGeometry relative="1" as="geometry" />
        </mxCell>
        <mxCell id="3oDmWCeqMh5HA-oaFcVl-18" value="num == 6&lt;div&gt;?&lt;/div&gt;" style="rhombus;whiteSpace=wrap;html=1;" vertex="1" parent="1">
          <mxGeometry x="312.5" y="660" width="80" height="80" as="geometry" />
        </mxCell>
        <mxCell id="3oDmWCeqMh5HA-oaFcVl-32" style="edgeStyle=orthogonalEdgeStyle;rounded=0;orthogonalLoop=1;jettySize=auto;html=1;exitX=0.5;exitY=1;exitDx=0;exitDy=0;entryX=0.5;entryY=0;entryDx=0;entryDy=0;" edge="1" parent="1" source="3oDmWCeqMh5HA-oaFcVl-19" target="3oDmWCeqMh5HA-oaFcVl-20">
          <mxGeometry relative="1" as="geometry" />
        </mxCell>
        <mxCell id="3oDmWCeqMh5HA-oaFcVl-98" style="edgeStyle=orthogonalEdgeStyle;rounded=0;orthogonalLoop=1;jettySize=auto;html=1;exitX=1;exitY=0.5;exitDx=0;exitDy=0;entryX=0;entryY=0.5;entryDx=0;entryDy=0;" edge="1" parent="1" source="3oDmWCeqMh5HA-oaFcVl-19" target="3oDmWCeqMh5HA-oaFcVl-57">
          <mxGeometry relative="1" as="geometry" />
        </mxCell>
        <mxCell id="3oDmWCeqMh5HA-oaFcVl-19" value="num == 7&lt;div&gt;?&lt;/div&gt;" style="rhombus;whiteSpace=wrap;html=1;" vertex="1" parent="1">
          <mxGeometry x="770" y="170" width="80" height="80" as="geometry" />
        </mxCell>
        <mxCell id="3oDmWCeqMh5HA-oaFcVl-33" style="edgeStyle=orthogonalEdgeStyle;rounded=0;orthogonalLoop=1;jettySize=auto;html=1;exitX=0.5;exitY=1;exitDx=0;exitDy=0;entryX=0.5;entryY=0;entryDx=0;entryDy=0;" edge="1" parent="1" source="3oDmWCeqMh5HA-oaFcVl-20" target="3oDmWCeqMh5HA-oaFcVl-21">
          <mxGeometry relative="1" as="geometry" />
        </mxCell>
        <mxCell id="3oDmWCeqMh5HA-oaFcVl-100" style="edgeStyle=orthogonalEdgeStyle;rounded=0;orthogonalLoop=1;jettySize=auto;html=1;exitX=1;exitY=0.5;exitDx=0;exitDy=0;entryX=0;entryY=0.5;entryDx=0;entryDy=0;" edge="1" parent="1" source="3oDmWCeqMh5HA-oaFcVl-20" target="3oDmWCeqMh5HA-oaFcVl-58">
          <mxGeometry relative="1" as="geometry" />
        </mxCell>
        <mxCell id="3oDmWCeqMh5HA-oaFcVl-20" value="num == 8&lt;div&gt;?&lt;/div&gt;" style="rhombus;whiteSpace=wrap;html=1;" vertex="1" parent="1">
          <mxGeometry x="770" y="270" width="80" height="80" as="geometry" />
        </mxCell>
        <mxCell id="3oDmWCeqMh5HA-oaFcVl-34" style="edgeStyle=orthogonalEdgeStyle;rounded=0;orthogonalLoop=1;jettySize=auto;html=1;exitX=0.5;exitY=1;exitDx=0;exitDy=0;entryX=0.5;entryY=0;entryDx=0;entryDy=0;" edge="1" parent="1" source="3oDmWCeqMh5HA-oaFcVl-21" target="3oDmWCeqMh5HA-oaFcVl-22">
          <mxGeometry relative="1" as="geometry" />
        </mxCell>
        <mxCell id="3oDmWCeqMh5HA-oaFcVl-102" style="edgeStyle=orthogonalEdgeStyle;rounded=0;orthogonalLoop=1;jettySize=auto;html=1;exitX=1;exitY=0.5;exitDx=0;exitDy=0;entryX=0;entryY=0.5;entryDx=0;entryDy=0;" edge="1" parent="1" source="3oDmWCeqMh5HA-oaFcVl-21" target="3oDmWCeqMh5HA-oaFcVl-59">
          <mxGeometry relative="1" as="geometry" />
        </mxCell>
        <mxCell id="3oDmWCeqMh5HA-oaFcVl-21" value="num == 9&lt;div&gt;?&lt;/div&gt;" style="rhombus;whiteSpace=wrap;html=1;" vertex="1" parent="1">
          <mxGeometry x="770" y="370" width="80" height="80" as="geometry" />
        </mxCell>
        <mxCell id="3oDmWCeqMh5HA-oaFcVl-35" style="edgeStyle=orthogonalEdgeStyle;rounded=0;orthogonalLoop=1;jettySize=auto;html=1;exitX=0.5;exitY=1;exitDx=0;exitDy=0;entryX=0.5;entryY=0;entryDx=0;entryDy=0;" edge="1" parent="1" source="3oDmWCeqMh5HA-oaFcVl-22" target="3oDmWCeqMh5HA-oaFcVl-23">
          <mxGeometry relative="1" as="geometry" />
        </mxCell>
        <mxCell id="3oDmWCeqMh5HA-oaFcVl-103" style="edgeStyle=orthogonalEdgeStyle;rounded=0;orthogonalLoop=1;jettySize=auto;html=1;exitX=1;exitY=0.5;exitDx=0;exitDy=0;entryX=0;entryY=0.5;entryDx=0;entryDy=0;" edge="1" parent="1" source="3oDmWCeqMh5HA-oaFcVl-22" target="3oDmWCeqMh5HA-oaFcVl-70">
          <mxGeometry relative="1" as="geometry" />
        </mxCell>
        <mxCell id="3oDmWCeqMh5HA-oaFcVl-22" value="num == 10&lt;div&gt;?&lt;/div&gt;" style="rhombus;whiteSpace=wrap;html=1;" vertex="1" parent="1">
          <mxGeometry x="770" y="470" width="80" height="80" as="geometry" />
        </mxCell>
        <mxCell id="3oDmWCeqMh5HA-oaFcVl-36" style="edgeStyle=orthogonalEdgeStyle;rounded=0;orthogonalLoop=1;jettySize=auto;html=1;exitX=0.5;exitY=1;exitDx=0;exitDy=0;entryX=0.5;entryY=0;entryDx=0;entryDy=0;" edge="1" parent="1" source="3oDmWCeqMh5HA-oaFcVl-23" target="3oDmWCeqMh5HA-oaFcVl-24">
          <mxGeometry relative="1" as="geometry" />
        </mxCell>
        <mxCell id="3oDmWCeqMh5HA-oaFcVl-104" style="edgeStyle=orthogonalEdgeStyle;rounded=0;orthogonalLoop=1;jettySize=auto;html=1;exitX=1;exitY=0.5;exitDx=0;exitDy=0;entryX=0;entryY=0.5;entryDx=0;entryDy=0;" edge="1" parent="1" source="3oDmWCeqMh5HA-oaFcVl-23" target="3oDmWCeqMh5HA-oaFcVl-71">
          <mxGeometry relative="1" as="geometry" />
        </mxCell>
        <mxCell id="3oDmWCeqMh5HA-oaFcVl-23" value="num == 11&lt;div&gt;?&lt;/div&gt;" style="rhombus;whiteSpace=wrap;html=1;" vertex="1" parent="1">
          <mxGeometry x="770" y="570" width="80" height="80" as="geometry" />
        </mxCell>
        <mxCell id="3oDmWCeqMh5HA-oaFcVl-105" style="edgeStyle=orthogonalEdgeStyle;rounded=0;orthogonalLoop=1;jettySize=auto;html=1;exitX=1;exitY=0.5;exitDx=0;exitDy=0;entryX=0;entryY=0.5;entryDx=0;entryDy=0;" edge="1" parent="1" source="3oDmWCeqMh5HA-oaFcVl-24" target="3oDmWCeqMh5HA-oaFcVl-72">
          <mxGeometry relative="1" as="geometry" />
        </mxCell>
        <mxCell id="3oDmWCeqMh5HA-oaFcVl-24" value="num == 12&lt;div&gt;?&lt;/div&gt;" style="rhombus;whiteSpace=wrap;html=1;" vertex="1" parent="1">
          <mxGeometry x="770" y="670" width="80" height="80" as="geometry" />
        </mxCell>
        <mxCell id="3oDmWCeqMh5HA-oaFcVl-37" value="NO" style="text;html=1;align=center;verticalAlign=middle;whiteSpace=wrap;rounded=0;" vertex="1" parent="1">
          <mxGeometry x="342.5" y="240" width="60" height="30" as="geometry" />
        </mxCell>
        <mxCell id="3oDmWCeqMh5HA-oaFcVl-38" value="NO" style="text;html=1;align=center;verticalAlign=middle;whiteSpace=wrap;rounded=0;" vertex="1" parent="1">
          <mxGeometry x="342.5" y="330" width="60" height="30" as="geometry" />
        </mxCell>
        <mxCell id="3oDmWCeqMh5HA-oaFcVl-39" value="NO" style="text;html=1;align=center;verticalAlign=middle;whiteSpace=wrap;rounded=0;" vertex="1" parent="1">
          <mxGeometry x="342.5" y="430" width="60" height="30" as="geometry" />
        </mxCell>
        <mxCell id="3oDmWCeqMh5HA-oaFcVl-40" value="NO" style="text;html=1;align=center;verticalAlign=middle;whiteSpace=wrap;rounded=0;" vertex="1" parent="1">
          <mxGeometry x="342.5" y="535" width="60" height="30" as="geometry" />
        </mxCell>
        <mxCell id="3oDmWCeqMh5HA-oaFcVl-41" value="NO" style="text;html=1;align=center;verticalAlign=middle;whiteSpace=wrap;rounded=0;" vertex="1" parent="1">
          <mxGeometry x="342.5" y="640" width="60" height="30" as="geometry" />
        </mxCell>
        <mxCell id="3oDmWCeqMh5HA-oaFcVl-42" value="NO" style="text;html=1;align=center;verticalAlign=middle;whiteSpace=wrap;rounded=0;" vertex="1" parent="1">
          <mxGeometry x="350" y="740" width="60" height="30" as="geometry" />
        </mxCell>
        <mxCell id="3oDmWCeqMh5HA-oaFcVl-43" value="NO" style="text;html=1;align=center;verticalAlign=middle;whiteSpace=wrap;rounded=0;" vertex="1" parent="1">
          <mxGeometry x="800" y="250" width="60" height="30" as="geometry" />
        </mxCell>
        <mxCell id="3oDmWCeqMh5HA-oaFcVl-44" value="NO" style="text;html=1;align=center;verticalAlign=middle;whiteSpace=wrap;rounded=0;" vertex="1" parent="1">
          <mxGeometry x="800" y="350" width="60" height="30" as="geometry" />
        </mxCell>
        <mxCell id="3oDmWCeqMh5HA-oaFcVl-45" value="NO" style="text;html=1;align=center;verticalAlign=middle;whiteSpace=wrap;rounded=0;" vertex="1" parent="1">
          <mxGeometry x="800" y="450" width="60" height="30" as="geometry" />
        </mxCell>
        <mxCell id="3oDmWCeqMh5HA-oaFcVl-46" value="NO" style="text;html=1;align=center;verticalAlign=middle;whiteSpace=wrap;rounded=0;" vertex="1" parent="1">
          <mxGeometry x="800" y="550" width="60" height="30" as="geometry" />
        </mxCell>
        <mxCell id="3oDmWCeqMh5HA-oaFcVl-47" value="NO" style="text;html=1;align=center;verticalAlign=middle;whiteSpace=wrap;rounded=0;" vertex="1" parent="1">
          <mxGeometry x="800" y="650" width="60" height="30" as="geometry" />
        </mxCell>
        <mxCell id="3oDmWCeqMh5HA-oaFcVl-48" value="NO" style="text;html=1;align=center;verticalAlign=middle;whiteSpace=wrap;rounded=0;" vertex="1" parent="1">
          <mxGeometry x="800" y="750" width="60" height="30" as="geometry" />
        </mxCell>
        <mxCell id="3oDmWCeqMh5HA-oaFcVl-110" style="edgeStyle=orthogonalEdgeStyle;rounded=0;orthogonalLoop=1;jettySize=auto;html=1;exitX=0.5;exitY=1;exitDx=0;exitDy=0;entryX=0.5;entryY=0;entryDx=0;entryDy=0;" edge="1" parent="1" source="3oDmWCeqMh5HA-oaFcVl-49" target="3oDmWCeqMh5HA-oaFcVl-79">
          <mxGeometry relative="1" as="geometry" />
        </mxCell>
        <mxCell id="3oDmWCeqMh5HA-oaFcVl-49" value="DISPLAY &quot;Invalid&quot;" style="shape=parallelogram;perimeter=parallelogramPerimeter;whiteSpace=wrap;html=1;fixedSize=1;" vertex="1" parent="1">
          <mxGeometry x="750" y="780" width="120" height="35" as="geometry" />
        </mxCell>
        <mxCell id="3oDmWCeqMh5HA-oaFcVl-50" style="edgeStyle=orthogonalEdgeStyle;rounded=0;orthogonalLoop=1;jettySize=auto;html=1;exitX=0.5;exitY=1;exitDx=0;exitDy=0;entryX=0.142;entryY=1.067;entryDx=0;entryDy=0;entryPerimeter=0;" edge="1" parent="1" source="3oDmWCeqMh5HA-oaFcVl-24" target="3oDmWCeqMh5HA-oaFcVl-48">
          <mxGeometry relative="1" as="geometry" />
        </mxCell>
        <mxCell id="3oDmWCeqMh5HA-oaFcVl-85" style="edgeStyle=orthogonalEdgeStyle;rounded=0;orthogonalLoop=1;jettySize=auto;html=1;exitX=1;exitY=0.5;exitDx=0;exitDy=0;entryX=0;entryY=0.5;entryDx=0;entryDy=0;" edge="1" parent="1" source="3oDmWCeqMh5HA-oaFcVl-51" target="3oDmWCeqMh5HA-oaFcVl-64">
          <mxGeometry relative="1" as="geometry" />
        </mxCell>
        <mxCell id="3oDmWCeqMh5HA-oaFcVl-51" value="DISPLAY &quot;January&quot;" style="shape=parallelogram;perimeter=parallelogramPerimeter;whiteSpace=wrap;html=1;fixedSize=1;" vertex="1" parent="1">
          <mxGeometry x="425" y="180" width="160" height="40" as="geometry" />
        </mxCell>
        <mxCell id="3oDmWCeqMh5HA-oaFcVl-86" style="edgeStyle=orthogonalEdgeStyle;rounded=0;orthogonalLoop=1;jettySize=auto;html=1;exitX=1;exitY=0.5;exitDx=0;exitDy=0;entryX=0;entryY=0.5;entryDx=0;entryDy=0;" edge="1" parent="1" source="3oDmWCeqMh5HA-oaFcVl-52" target="3oDmWCeqMh5HA-oaFcVl-65">
          <mxGeometry relative="1" as="geometry" />
        </mxCell>
        <mxCell id="3oDmWCeqMh5HA-oaFcVl-52" value="DISPLAY &quot;February&quot;" style="shape=parallelogram;perimeter=parallelogramPerimeter;whiteSpace=wrap;html=1;fixedSize=1;" vertex="1" parent="1">
          <mxGeometry x="425" y="280" width="160" height="40" as="geometry" />
        </mxCell>
        <mxCell id="3oDmWCeqMh5HA-oaFcVl-87" style="edgeStyle=orthogonalEdgeStyle;rounded=0;orthogonalLoop=1;jettySize=auto;html=1;exitX=1;exitY=0.5;exitDx=0;exitDy=0;entryX=0;entryY=0.5;entryDx=0;entryDy=0;" edge="1" parent="1" source="3oDmWCeqMh5HA-oaFcVl-53" target="3oDmWCeqMh5HA-oaFcVl-66">
          <mxGeometry relative="1" as="geometry" />
        </mxCell>
        <mxCell id="3oDmWCeqMh5HA-oaFcVl-53" value="DISPLAY &quot;March&quot;" style="shape=parallelogram;perimeter=parallelogramPerimeter;whiteSpace=wrap;html=1;fixedSize=1;" vertex="1" parent="1">
          <mxGeometry x="425" y="380" width="160" height="40" as="geometry" />
        </mxCell>
        <mxCell id="3oDmWCeqMh5HA-oaFcVl-88" style="edgeStyle=orthogonalEdgeStyle;rounded=0;orthogonalLoop=1;jettySize=auto;html=1;exitX=1;exitY=0.5;exitDx=0;exitDy=0;entryX=0;entryY=0.5;entryDx=0;entryDy=0;" edge="1" parent="1" source="3oDmWCeqMh5HA-oaFcVl-54" target="3oDmWCeqMh5HA-oaFcVl-67">
          <mxGeometry relative="1" as="geometry" />
        </mxCell>
        <mxCell id="3oDmWCeqMh5HA-oaFcVl-54" value="DISPLAY &quot;April&quot;" style="shape=parallelogram;perimeter=parallelogramPerimeter;whiteSpace=wrap;html=1;fixedSize=1;" vertex="1" parent="1">
          <mxGeometry x="425" y="480" width="160" height="40" as="geometry" />
        </mxCell>
        <mxCell id="3oDmWCeqMh5HA-oaFcVl-90" style="edgeStyle=orthogonalEdgeStyle;rounded=0;orthogonalLoop=1;jettySize=auto;html=1;exitX=1;exitY=0.5;exitDx=0;exitDy=0;entryX=0;entryY=0.5;entryDx=0;entryDy=0;" edge="1" parent="1" source="3oDmWCeqMh5HA-oaFcVl-55" target="3oDmWCeqMh5HA-oaFcVl-68">
          <mxGeometry relative="1" as="geometry" />
        </mxCell>
        <mxCell id="3oDmWCeqMh5HA-oaFcVl-55" value="DISPLAY &quot;May&quot;" style="shape=parallelogram;perimeter=parallelogramPerimeter;whiteSpace=wrap;html=1;fixedSize=1;" vertex="1" parent="1">
          <mxGeometry x="425" y="580" width="160" height="40" as="geometry" />
        </mxCell>
        <mxCell id="3oDmWCeqMh5HA-oaFcVl-92" style="edgeStyle=orthogonalEdgeStyle;rounded=0;orthogonalLoop=1;jettySize=auto;html=1;exitX=1;exitY=0.5;exitDx=0;exitDy=0;entryX=0;entryY=0.5;entryDx=0;entryDy=0;" edge="1" parent="1" source="3oDmWCeqMh5HA-oaFcVl-56" target="3oDmWCeqMh5HA-oaFcVl-69">
          <mxGeometry relative="1" as="geometry" />
        </mxCell>
        <mxCell id="3oDmWCeqMh5HA-oaFcVl-56" value="DISPLAY &quot;June&quot;" style="shape=parallelogram;perimeter=parallelogramPerimeter;whiteSpace=wrap;html=1;fixedSize=1;" vertex="1" parent="1">
          <mxGeometry x="425" y="680" width="160" height="40" as="geometry" />
        </mxCell>
        <mxCell id="3oDmWCeqMh5HA-oaFcVl-99" style="edgeStyle=orthogonalEdgeStyle;rounded=0;orthogonalLoop=1;jettySize=auto;html=1;exitX=1;exitY=0.5;exitDx=0;exitDy=0;entryX=0;entryY=0.5;entryDx=0;entryDy=0;" edge="1" parent="1" source="3oDmWCeqMh5HA-oaFcVl-57" target="3oDmWCeqMh5HA-oaFcVl-73">
          <mxGeometry relative="1" as="geometry" />
        </mxCell>
        <mxCell id="3oDmWCeqMh5HA-oaFcVl-57" value="DISPLAY &quot;July&quot;" style="shape=parallelogram;perimeter=parallelogramPerimeter;whiteSpace=wrap;html=1;fixedSize=1;" vertex="1" parent="1">
          <mxGeometry x="877.5" y="190" width="160" height="40" as="geometry" />
        </mxCell>
        <mxCell id="3oDmWCeqMh5HA-oaFcVl-101" style="edgeStyle=orthogonalEdgeStyle;rounded=0;orthogonalLoop=1;jettySize=auto;html=1;exitX=1;exitY=0.5;exitDx=0;exitDy=0;entryX=0;entryY=0.5;entryDx=0;entryDy=0;" edge="1" parent="1" source="3oDmWCeqMh5HA-oaFcVl-58" target="3oDmWCeqMh5HA-oaFcVl-74">
          <mxGeometry relative="1" as="geometry" />
        </mxCell>
        <mxCell id="3oDmWCeqMh5HA-oaFcVl-58" value="DISPLAY &quot;August&quot;" style="shape=parallelogram;perimeter=parallelogramPerimeter;whiteSpace=wrap;html=1;fixedSize=1;" vertex="1" parent="1">
          <mxGeometry x="877.5" y="290" width="160" height="40" as="geometry" />
        </mxCell>
        <mxCell id="3oDmWCeqMh5HA-oaFcVl-106" style="edgeStyle=orthogonalEdgeStyle;rounded=0;orthogonalLoop=1;jettySize=auto;html=1;exitX=1;exitY=0.5;exitDx=0;exitDy=0;entryX=0;entryY=0.5;entryDx=0;entryDy=0;" edge="1" parent="1" source="3oDmWCeqMh5HA-oaFcVl-59" target="3oDmWCeqMh5HA-oaFcVl-75">
          <mxGeometry relative="1" as="geometry" />
        </mxCell>
        <mxCell id="3oDmWCeqMh5HA-oaFcVl-59" value="DISPLAY &quot;September&quot;" style="shape=parallelogram;perimeter=parallelogramPerimeter;whiteSpace=wrap;html=1;fixedSize=1;" vertex="1" parent="1">
          <mxGeometry x="877.5" y="390" width="160" height="40" as="geometry" />
        </mxCell>
        <mxCell id="3oDmWCeqMh5HA-oaFcVl-60" value="A" style="ellipse;whiteSpace=wrap;html=1;aspect=fixed;" vertex="1" parent="1">
          <mxGeometry x="327.5" y="772.5" width="50" height="50" as="geometry" />
        </mxCell>
        <mxCell id="3oDmWCeqMh5HA-oaFcVl-63" style="edgeStyle=orthogonalEdgeStyle;rounded=0;orthogonalLoop=1;jettySize=auto;html=1;exitX=0.5;exitY=1;exitDx=0;exitDy=0;entryX=0.5;entryY=0;entryDx=0;entryDy=0;" edge="1" parent="1" source="3oDmWCeqMh5HA-oaFcVl-62" target="3oDmWCeqMh5HA-oaFcVl-19">
          <mxGeometry relative="1" as="geometry" />
        </mxCell>
        <mxCell id="3oDmWCeqMh5HA-oaFcVl-62" value="A" style="ellipse;whiteSpace=wrap;html=1;aspect=fixed;" vertex="1" parent="1">
          <mxGeometry x="785" y="100" width="50" height="50" as="geometry" />
        </mxCell>
        <mxCell id="3oDmWCeqMh5HA-oaFcVl-64" value="B" style="ellipse;whiteSpace=wrap;html=1;aspect=fixed;" vertex="1" parent="1">
          <mxGeometry x="630" y="180" width="40" height="40" as="geometry" />
        </mxCell>
        <mxCell id="3oDmWCeqMh5HA-oaFcVl-65" value="B" style="ellipse;whiteSpace=wrap;html=1;aspect=fixed;" vertex="1" parent="1">
          <mxGeometry x="630" y="280" width="40" height="40" as="geometry" />
        </mxCell>
        <mxCell id="3oDmWCeqMh5HA-oaFcVl-66" value="B" style="ellipse;whiteSpace=wrap;html=1;aspect=fixed;" vertex="1" parent="1">
          <mxGeometry x="630" y="380" width="40" height="40" as="geometry" />
        </mxCell>
        <mxCell id="3oDmWCeqMh5HA-oaFcVl-67" value="B" style="ellipse;whiteSpace=wrap;html=1;aspect=fixed;" vertex="1" parent="1">
          <mxGeometry x="630" y="480" width="40" height="40" as="geometry" />
        </mxCell>
        <mxCell id="3oDmWCeqMh5HA-oaFcVl-68" value="B" style="ellipse;whiteSpace=wrap;html=1;aspect=fixed;" vertex="1" parent="1">
          <mxGeometry x="630" y="580" width="40" height="40" as="geometry" />
        </mxCell>
        <mxCell id="3oDmWCeqMh5HA-oaFcVl-69" value="B" style="ellipse;whiteSpace=wrap;html=1;aspect=fixed;" vertex="1" parent="1">
          <mxGeometry x="630" y="680" width="40" height="40" as="geometry" />
        </mxCell>
        <mxCell id="3oDmWCeqMh5HA-oaFcVl-107" style="edgeStyle=orthogonalEdgeStyle;rounded=0;orthogonalLoop=1;jettySize=auto;html=1;exitX=1;exitY=0.5;exitDx=0;exitDy=0;entryX=0;entryY=0.5;entryDx=0;entryDy=0;" edge="1" parent="1" source="3oDmWCeqMh5HA-oaFcVl-70" target="3oDmWCeqMh5HA-oaFcVl-76">
          <mxGeometry relative="1" as="geometry" />
        </mxCell>
        <mxCell id="3oDmWCeqMh5HA-oaFcVl-70" value="DISPLAY &quot;October&quot;" style="shape=parallelogram;perimeter=parallelogramPerimeter;whiteSpace=wrap;html=1;fixedSize=1;" vertex="1" parent="1">
          <mxGeometry x="870" y="490" width="160" height="40" as="geometry" />
        </mxCell>
        <mxCell id="3oDmWCeqMh5HA-oaFcVl-108" style="edgeStyle=orthogonalEdgeStyle;rounded=0;orthogonalLoop=1;jettySize=auto;html=1;exitX=1;exitY=0.5;exitDx=0;exitDy=0;entryX=0;entryY=0.5;entryDx=0;entryDy=0;" edge="1" parent="1" source="3oDmWCeqMh5HA-oaFcVl-71" target="3oDmWCeqMh5HA-oaFcVl-77">
          <mxGeometry relative="1" as="geometry" />
        </mxCell>
        <mxCell id="3oDmWCeqMh5HA-oaFcVl-71" value="DISPLAY &quot;November&quot;" style="shape=parallelogram;perimeter=parallelogramPerimeter;whiteSpace=wrap;html=1;fixedSize=1;" vertex="1" parent="1">
          <mxGeometry x="877.5" y="590" width="160" height="40" as="geometry" />
        </mxCell>
        <mxCell id="3oDmWCeqMh5HA-oaFcVl-109" style="edgeStyle=orthogonalEdgeStyle;rounded=0;orthogonalLoop=1;jettySize=auto;html=1;exitX=1;exitY=0.5;exitDx=0;exitDy=0;entryX=0;entryY=0.5;entryDx=0;entryDy=0;" edge="1" parent="1" source="3oDmWCeqMh5HA-oaFcVl-72" target="3oDmWCeqMh5HA-oaFcVl-78">
          <mxGeometry relative="1" as="geometry" />
        </mxCell>
        <mxCell id="3oDmWCeqMh5HA-oaFcVl-72" value="DISPLAY &quot;December&quot;" style="shape=parallelogram;perimeter=parallelogramPerimeter;whiteSpace=wrap;html=1;fixedSize=1;" vertex="1" parent="1">
          <mxGeometry x="877.5" y="690" width="160" height="40" as="geometry" />
        </mxCell>
        <mxCell id="3oDmWCeqMh5HA-oaFcVl-73" value="B" style="ellipse;whiteSpace=wrap;html=1;aspect=fixed;" vertex="1" parent="1">
          <mxGeometry x="1070" y="190" width="40" height="40" as="geometry" />
        </mxCell>
        <mxCell id="3oDmWCeqMh5HA-oaFcVl-74" value="B" style="ellipse;whiteSpace=wrap;html=1;aspect=fixed;" vertex="1" parent="1">
          <mxGeometry x="1070" y="290" width="40" height="40" as="geometry" />
        </mxCell>
        <mxCell id="3oDmWCeqMh5HA-oaFcVl-75" value="B" style="ellipse;whiteSpace=wrap;html=1;aspect=fixed;" vertex="1" parent="1">
          <mxGeometry x="1070" y="390" width="40" height="40" as="geometry" />
        </mxCell>
        <mxCell id="3oDmWCeqMh5HA-oaFcVl-76" value="B" style="ellipse;whiteSpace=wrap;html=1;aspect=fixed;" vertex="1" parent="1">
          <mxGeometry x="1070" y="490" width="40" height="40" as="geometry" />
        </mxCell>
        <mxCell id="3oDmWCeqMh5HA-oaFcVl-77" value="B" style="ellipse;whiteSpace=wrap;html=1;aspect=fixed;" vertex="1" parent="1">
          <mxGeometry x="1070" y="590" width="40" height="40" as="geometry" />
        </mxCell>
        <mxCell id="3oDmWCeqMh5HA-oaFcVl-78" value="B" style="ellipse;whiteSpace=wrap;html=1;aspect=fixed;" vertex="1" parent="1">
          <mxGeometry x="1070" y="690" width="40" height="40" as="geometry" />
        </mxCell>
        <mxCell id="3oDmWCeqMh5HA-oaFcVl-79" value="B" style="ellipse;whiteSpace=wrap;html=1;aspect=fixed;" vertex="1" parent="1">
          <mxGeometry x="790" y="840" width="40" height="40" as="geometry" />
        </mxCell>
        <mxCell id="3oDmWCeqMh5HA-oaFcVl-80" value="YES" style="text;html=1;align=center;verticalAlign=middle;whiteSpace=wrap;rounded=0;" vertex="1" parent="1">
          <mxGeometry x="377.5" y="270" width="60" height="30" as="geometry" />
        </mxCell>
        <mxCell id="3oDmWCeqMh5HA-oaFcVl-93" value="YES" style="text;html=1;align=center;verticalAlign=middle;whiteSpace=wrap;rounded=0;" vertex="1" parent="1">
          <mxGeometry x="377.5" y="165" width="60" height="30" as="geometry" />
        </mxCell>
        <mxCell id="3oDmWCeqMh5HA-oaFcVl-94" value="YES" style="text;html=1;align=center;verticalAlign=middle;whiteSpace=wrap;rounded=0;" vertex="1" parent="1">
          <mxGeometry x="377.5" y="370" width="60" height="30" as="geometry" />
        </mxCell>
        <mxCell id="3oDmWCeqMh5HA-oaFcVl-95" value="YES" style="text;html=1;align=center;verticalAlign=middle;whiteSpace=wrap;rounded=0;" vertex="1" parent="1">
          <mxGeometry x="377.5" y="470" width="60" height="30" as="geometry" />
        </mxCell>
        <mxCell id="3oDmWCeqMh5HA-oaFcVl-96" value="YES" style="text;html=1;align=center;verticalAlign=middle;whiteSpace=wrap;rounded=0;" vertex="1" parent="1">
          <mxGeometry x="377.5" y="570" width="60" height="30" as="geometry" />
        </mxCell>
        <mxCell id="3oDmWCeqMh5HA-oaFcVl-97" value="YES" style="text;html=1;align=center;verticalAlign=middle;whiteSpace=wrap;rounded=0;" vertex="1" parent="1">
          <mxGeometry x="377.5" y="670" width="60" height="30" as="geometry" />
        </mxCell>
        <mxCell id="3oDmWCeqMh5HA-oaFcVl-111" value="YES" style="text;html=1;align=center;verticalAlign=middle;whiteSpace=wrap;rounded=0;" vertex="1" parent="1">
          <mxGeometry x="830" y="185" width="60" height="30" as="geometry" />
        </mxCell>
        <mxCell id="3oDmWCeqMh5HA-oaFcVl-112" value="YES" style="text;html=1;align=center;verticalAlign=middle;whiteSpace=wrap;rounded=0;" vertex="1" parent="1">
          <mxGeometry x="835" y="280" width="60" height="30" as="geometry" />
        </mxCell>
        <mxCell id="3oDmWCeqMh5HA-oaFcVl-113" value="YES" style="text;html=1;align=center;verticalAlign=middle;whiteSpace=wrap;rounded=0;" vertex="1" parent="1">
          <mxGeometry x="835" y="380" width="60" height="30" as="geometry" />
        </mxCell>
        <mxCell id="3oDmWCeqMh5HA-oaFcVl-114" value="YES" style="text;html=1;align=center;verticalAlign=middle;whiteSpace=wrap;rounded=0;" vertex="1" parent="1">
          <mxGeometry x="830" y="480" width="60" height="30" as="geometry" />
        </mxCell>
        <mxCell id="3oDmWCeqMh5HA-oaFcVl-115" value="YES" style="text;html=1;align=center;verticalAlign=middle;whiteSpace=wrap;rounded=0;" vertex="1" parent="1">
          <mxGeometry x="830" y="580" width="60" height="30" as="geometry" />
        </mxCell>
        <mxCell id="3oDmWCeqMh5HA-oaFcVl-116" value="YES" style="text;html=1;align=center;verticalAlign=middle;whiteSpace=wrap;rounded=0;" vertex="1" parent="1">
          <mxGeometry x="835" y="685" width="60" height="30" as="geometry" />
        </mxCell>
        <mxCell id="3oDmWCeqMh5HA-oaFcVl-117" value="B" style="ellipse;whiteSpace=wrap;html=1;aspect=fixed;" vertex="1" parent="1">
          <mxGeometry x="500" y="850" width="40" height="40" as="geometry" />
        </mxCell>
        <mxCell id="3oDmWCeqMh5HA-oaFcVl-118" value="RETURN" style="strokeWidth=2;html=1;shape=mxgraph.flowchart.terminator;whiteSpace=wrap;" vertex="1" parent="1">
          <mxGeometry x="470" y="920" width="100" height="30" as="geometry" />
        </mxCell>
        <mxCell id="3oDmWCeqMh5HA-oaFcVl-119" style="edgeStyle=orthogonalEdgeStyle;rounded=0;orthogonalLoop=1;jettySize=auto;html=1;exitX=0.5;exitY=1;exitDx=0;exitDy=0;entryX=0.5;entryY=0;entryDx=0;entryDy=0;entryPerimeter=0;" edge="1" parent="1" source="3oDmWCeqMh5HA-oaFcVl-117" target="3oDmWCeqMh5HA-oaFcVl-118">
          <mxGeometry relative="1" as="geometry" />
        </mxCell>
      </root>
    </mxGraphModel>
  </diagram>
</mxfile>
